<?xml version="1.0" encoding="utf-8"?>
<!-- Generator: Adobe Illustrator 21.1.0, SVG Export Plug-In . SVG Version: 6.00 Build 0)  -->
<svg version="1.1" id="Layer_1" xmlns="http://www.w3.org/2000/svg" xmlns:xlink="http://www.w3.org/1999/xlink" x="0px" y="0px"
	 viewBox="0 0 209.5 288" style="enable-background:new 0 0 209.5 288;" xml:space="preserve">
<style type="text/css">
	.st0{clip-path:url(#SVGID_2_);fill:url(#SVGID_3_);}
</style>
<g>
	<defs>
		<path id="SVGID_1_" d="M107,44.9h-0.2h-0.7h0h-0.6h-0.5v44.4c2.7,0.4,4,2.3,4,4.5c0,1.2-0.4,2.3-1.2,3.1c-0.8,0.9-2,1.5-3.3,1.5
			c-1.3,0-2.5-0.6-3.4-1.5c-0.7-0.8-1.2-1.9-1.2-3.1c0-2.2,1.3-4.1,4-4.5V44.9h-0.4H103h0h-0.7h-0.2h-0.6
			c-2.4,6.5-9.3,26.4-24.5,39.5c-0.1,0.1-0.1,0.1-0.2,0.1l2.1,12.4l-14.7-4l0.1,3l0.4,46.3c0,0-4.5,26.4,31.2,42.5v-50.6l-22.6-9.6
			c-3-1.5-3.9-2.9-3.9-6.3v-10.1l29.1,8.1l0.4,0.1l5.5,6.4l0.1-0.1l0.1,0.1l5.5-6.4l0.5-0.1l29.1-8.1v10.1c0,3.4-0.9,4.8-3.9,6.3
			l-22.6,9.6v50.6c35.7-16,31.2-42.5,31.2-42.5l0.4-48.5l0-0.7l-0.4,0.1v0l0,0l-14.1,3.8l2.1-12.4c-0.1-0.1-0.1-0.1-0.2-0.1
			c-15.2-13.1-22.1-33-24.5-39.5H107z"/>
	</defs>
	<clipPath id="SVGID_2_">
		<use xlink:href="#SVGID_1_"  style="overflow:visible;"/>
	</clipPath>
	
		<linearGradient id="SVGID_3_" gradientUnits="userSpaceOnUse" x1="-1.1337" y1="-2.3157" x2="-0.9886" y2="-2.3157" gradientTransform="matrix(569.133 9.9848 9.9848 -569.133 731.9786 -1192.5522)">
		<stop  offset="0" style="stop-color:#F16A25"/>
		<stop  offset="0.5419" style="stop-color:#F89D20"/>
		<stop  offset="1" style="stop-color:#F06724"/>
	</linearGradient>
	<polygon class="st0" points="60.2,43.3 151.3,44.9 148.9,186.2 57.7,184.6 	"/>
</g>
</svg>
