<?xml version="1.0" encoding="utf-8"?>
<!-- Generator: Adobe Illustrator 21.1.0, SVG Export Plug-In . SVG Version: 6.00 Build 0)  -->
<svg version="1.1" id="Layer_1" xmlns="http://www.w3.org/2000/svg" xmlns:xlink="http://www.w3.org/1999/xlink" x="0px" y="0px"
	 viewBox="0 0 209.5 288" style="enable-background:new 0 0 209.5 288;" xml:space="preserve">
<style type="text/css">
	.st0{fill:#DD5A27;stroke:#DE5A26;stroke-miterlimit:10;}
</style>
<g>
	<polygon class="st0" points="46.2,199.9 42.9,199.9 42.9,220.1 40.9,220.1 40.9,199.9 37.5,199.9 37.5,198.2 46.2,198.2 	"/>
	<polygon class="st0" points="55.7,220.1 48.5,220.1 48.5,198.2 55.6,198.2 55.6,199.9 50.5,199.9 50.5,208.1 55.2,208.1 
		55.2,209.8 50.5,209.8 50.5,218.3 55.7,218.3 	"/>
	<path class="st0" d="M67.5,220.1h-1.9l-0.8-4.9h-4.3l-0.8,4.9h-1.9V220l3.9-21.9h1.9L67.5,220.1z M64.6,213.5l-1.9-11.9l-1.9,11.9
		H64.6z"/>
	<path class="st0" d="M78.9,218.5c0,0.5-0.1,0.8-0.4,1.1c-0.3,0.3-0.7,0.4-1.1,0.4h-5.6c-0.5,0-0.8-0.1-1.1-0.4
		c-0.3-0.3-0.4-0.7-0.4-1.1v-18.8c0-0.5,0.1-0.8,0.4-1.1c0.3-0.3,0.7-0.4,1.1-0.4h5.6c0.5,0,0.8,0.1,1.1,0.4
		c0.3,0.3,0.4,0.7,0.4,1.1v5.1h-2v-4.9h-4.9v18.4H77V213h2V218.5z"/>
	<polygon class="st0" points="91.5,220.1 89.5,220.1 89.5,209.5 84.3,209.5 84.3,220.1 82.3,220.1 82.3,198.2 84.3,198.2 
		84.3,207.8 89.5,207.8 89.5,198.2 91.5,198.2 	"/>
	<polygon class="st0" points="102.2,220.1 95,220.1 95,198.2 102.1,198.2 102.1,199.9 96.9,199.9 96.9,208.1 101.6,208.1 
		101.6,209.8 96.9,209.8 96.9,218.3 102.2,218.3 	"/>
	<path class="st0" d="M114.5,220.1h-2l-4.1-11.7l0.3-0.4h3.5v-8h-5v20.2h-1.9v-21.9h7.3c0.5,0,0.8,0.1,1.1,0.4
		c0.3,0.3,0.4,0.7,0.4,1.1v8.3c0,1.1-0.7,1.6-2.1,1.6c-0.1,0-0.3,0-0.6,0c-0.3,0-0.5,0-0.6,0C112,213.1,113.3,216.6,114.5,220.1"/>
	<path class="st0" d="M125.9,218.5c0,0.5-0.1,0.8-0.4,1.1c-0.3,0.3-0.7,0.4-1.1,0.4h-5.5c-0.5,0-0.8-0.1-1.1-0.4
		c-0.3-0.3-0.4-0.7-0.4-1.1V213h1.9v5.4h4.7v-5.2l-6-7.3c-0.4-0.5-0.6-1.1-0.6-1.7v-4.4c0-0.5,0.1-0.8,0.4-1.1
		c0.3-0.3,0.7-0.4,1.1-0.4h5.5c0.5,0,0.8,0.1,1.1,0.4c0.3,0.3,0.4,0.7,0.4,1.1v5.1H124v-4.9h-4.7v4.6l6.1,7.3c0.4,0.5,0.6,1,0.6,1.6
		V218.5z"/>
	<polygon class="st0" points="142.5,199.9 139.1,199.9 139.1,220.1 137.2,220.1 137.2,199.9 133.8,199.9 133.8,198.2 142.5,198.2 	
		"/>
	<rect x="144.9" y="198.2" class="st0" width="1.9" height="21.9"/>
	<path class="st0" d="M161.3,220.1h-1.8v-13.9c0-0.2,0.1-0.8,0.2-1.7l-3.6,13.5h-0.4l-3.6-13.5c0.1,1,0.2,1.5,0.2,1.7v13.9h-1.8
		v-21.9h1.8l3.6,14.2c0,0.1,0,0.3,0.1,0.6c0-0.1,0-0.3,0.1-0.6l3.5-14.2h1.8V220.1z"/>
	<polygon class="st0" points="172,220.1 164.8,220.1 164.8,198.2 171.9,198.2 171.9,199.9 166.8,199.9 166.8,208.1 171.5,208.1 
		171.5,209.8 166.8,209.8 166.8,218.3 172,218.3 	"/>
</g>
</svg>
