<?xml version="1.0" encoding="utf-8"?>
<!-- Generator: Adobe Illustrator 21.1.0, SVG Export Plug-In . SVG Version: 6.00 Build 0)  -->
<svg version="1.1" id="Layer_1" xmlns="http://www.w3.org/2000/svg" xmlns:xlink="http://www.w3.org/1999/xlink" x="0px" y="0px"
	 viewBox="0 0 57.8 64" style="enable-background:new 0 0 57.8 64;" xml:space="preserve">
<style type="text/css">
	.st0{clip-path:url(#SVGID_2_);fill:url(#SVGID_3_);}
</style>
<g>
	<defs>
		<path id="SVGID_1_" d="M30,0L30,0h-0.4h0h-0.3h-0.2v20.3c1.2,0.2,1.8,1,1.8,2.1c0,0.5-0.2,1-0.5,1.4c-0.4,0.4-0.9,0.7-1.5,0.7
			c-0.6,0-1.2-0.3-1.5-0.7c-0.3-0.4-0.5-0.9-0.5-1.4c0-1,0.6-1.9,1.8-2.1V0h-0.2h-0.3h0h-0.3h-0.1h-0.3c-1.1,3-4.3,12.1-11.2,18.1
			c0,0-0.1,0-0.1,0.1l0.9,5.7L10.4,22l0.1,1.4l0.2,21.2c0,0-2.1,12.1,14.3,19.4V40.9l-10.3-4.4c-1.4-0.7-1.8-1.3-1.8-2.9V29
			l13.3,3.7l0.2,0.1l2.5,2.9l0-0.1l0,0.1l2.5-2.9l0.2-0.1L45,29v4.6c0,1.5-0.4,2.2-1.8,2.9l-10.3,4.4V64
			c16.3-7.3,14.3-19.4,14.3-19.4l0.2-22.2l0-0.3l-0.2,0.1v0l0,0l-6.5,1.8l0.9-5.7c0,0-0.1,0-0.1-0.1C34.5,12.1,31.4,3,30.3,0H30z"/>
	</defs>
	<clipPath id="SVGID_2_">
		<use xlink:href="#SVGID_1_"  style="overflow:visible;"/>
	</clipPath>
	
		<linearGradient id="SVGID_3_" gradientUnits="userSpaceOnUse" x1="-330.4811" y1="-98.2925" x2="-330.4148" y2="-98.2925" gradientTransform="matrix(569.133 9.9848 9.9848 -569.133 189079.3281 -52610.0352)">
		<stop  offset="0" style="stop-color:#F06A24"/>
		<stop  offset="0.5419" style="stop-color:#F89C1F"/>
		<stop  offset="1" style="stop-color:#F06724"/>
	</linearGradient>
	<polygon class="st0" points="8.6,-0.7 50.3,0 49.2,64.7 7.5,64 	"/>
</g>
</svg>
